<svg width="30" height="30" viewBox="0 0 30 30" fill="none" xmlns="http://www.w3.org/2000/svg">
<path d="M1.25 15V12.5H3.75V15H1.25ZM26.25 15V12.5H28.75V15H26.25ZM1.25 10V7.5H3.75V10H1.25ZM26.25 10V7.5H28.75V10H26.25ZM1.25 5V2.5H3.75V5H1.25ZM6.25 15V12.5H8.75V15H6.25ZM21.25 15V12.5H23.75V15H21.25ZM26.25 5V2.5H28.75V5H26.25ZM6.25 5V2.5H8.75V5H6.25ZM11.25 5V2.5H13.75V5H11.25ZM16.25 5V2.5H18.75V5H16.25ZM21.25 5V2.5H23.75V5H21.25ZM14.7812 28.75C14.2812 28.75 13.8021 28.6562 13.3438 28.4688C12.8854 28.2812 12.4792 28.0104 12.125 27.6562L5.75 21.25L7.75 19.2188L11.25 20.2188V8.75H13.75V18.75H15V13.75H17.5V18.75H18.75V15H21.25V18.75H22.5V17.5H25V23.75C25 25.125 24.5104 26.3021 23.5312 27.2812C22.5521 28.2604 21.375 28.75 20 28.75H14.7812Z" fill="white"/>
</svg>
