<svg width="31" height="30" viewBox="0 0 31 30" fill="none" xmlns="http://www.w3.org/2000/svg">
<path d="M15.5 11.25C17.9162 11.25 19.875 9.29125 19.875 6.875C19.875 4.45875 17.9162 2.5 15.5 2.5C13.0838 2.5 11.125 4.45875 11.125 6.875C11.125 9.29125 13.0838 11.25 15.5 11.25Z" fill="white" stroke="white" stroke-width="2" stroke-linecap="round" stroke-linejoin="round"/>
<path d="M3 25.625C3 20.1019 8.03687 15.625 14.25 15.625L3 25.625Z" fill="white"/>
<path d="M3 25.625C3 20.1019 8.03688 15.625 14.25 15.625" stroke="white" stroke-width="2" stroke-linecap="round" stroke-linejoin="round"/>
<path d="M20.4063 17.5C19.0775 17.5 18 18.7556 18 20.3038C18 23.1081 20.8438 25.6569 22.375 26.25C23.9062 25.6569 26.75 23.1081 26.75 20.3038C26.75 18.7563 25.6725 17.5 24.3438 17.5C23.53 17.5 22.8106 17.9706 22.375 18.6913C21.9394 17.9706 21.22 17.5 20.4063 17.5Z" fill="white" stroke="white" stroke-width="2" stroke-linecap="round" stroke-linejoin="round"/>
</svg>
